...Download...Seed...Enjoy...
 
http://i.imgrz.com/7B0ub.jpg

PLot
A young man aims of making it big in life. He's offered a lucrative job by a rival business group.
His lofty ambitions corrupt him en route. His personal life hits a low. He gets alienated from his
lady love. The route he undertakes to attain the power and riches is a one-way street from where
it's impossible to withdraw. He realizes he has been framed. Conned by the people he trusted.
He decides to set things rightΓÇª 

General
Complete name: Rush (2012) ScamRip D3SI - Team MG.avi
Format : AVI
Format/Info: Audio Video Interleave
File size: 682 MiB
Duration : 1h 50mn
Overall bit rate : 863 Kbps
Writing library: Boilsoft AVI tool build 30012/release

Video
ID : 0
Format : MPEG-4 Visual
Format profile : Advanced Simple@L5
Format settings, BVOP: 2
Format settings, QPel: No
Format settings, GMC : No warppoints
Format settings, Matrix: Default (H.263)
Codec ID : XVID
Codec ID/Hint: XviD
Duration : 1h 50mn
Bit rate : 757 Kbps
Width: 592 pixels
Height : 272 pixels
Display aspect ratio : 2.2:1
Frame rate : 25.000 fps
Color space: YUV
Chroma subsampling : 4:2:0
Bit depth: 8 bits
Scan type: Progressive
Compression mode : Lossy
Bits/(Pixel*Frame) : 0.188
Stream size: 598 MiB (88%)
Writing library: XviD 1.2.1 (UTC 2008-12-04)

Audio
ID : 1
Format : MPEG Audio
Format version : Version 1
Format profile : Layer 3
Mode : Joint stereo
Codec ID : 55
Codec ID/Hint: MP3
Duration : 1h 50mn
Bit rate mode: Constant
Bit rate : 96.0 Kbps
Channel(s) : 2 channels
Sampling rate: 32.0 KHz
Compression mode : Lossy
Delay relative to video: 32ms
Stream size: 75.9 MiB (11%)
Alignment: Split accross interleaves
Interleave, duration : 40 ms (1.00 video frame)
Interleave, preload duration : 500 ms
 
http://imgur.com/D1wuA.jpg